<?xml version="1.0" standalone="no"?><!DOCTYPE svg PUBLIC "-//W3C//DTD SVG 1.1//EN" "http://www.w3.org/Graphics/SVG/1.1/DTD/svg11.dtd"><svg t="1683968594072" class="icon" viewBox="0 0 1024 1024" version="1.1" xmlns="http://www.w3.org/2000/svg" p-id="5793" xmlns:xlink="http://www.w3.org/1999/xlink" width="32" height="32"><path d="M780.747 387.2l-307.2 305.974c-7.245 7.276-17.27 11.778-28.346 11.778s-21.102-4.503-28.345-11.777l-173.655-172.908c-6.301-7.039-10.153-16.385-10.153-26.631 0-22.091 17.909-40 40-40 10.272 0 19.64 3.872 26.723 10.236l145.403 144.661 278.88-277.706c7.248-7.292 17.284-11.805 28.373-11.805 22.091 0 40 17.909 40 40 0 0.007 0 0.013 0 0.020 0-0.001 0-0.001 0-0.001 0 11.027-4.486 21.006-11.732 28.211M511.947 32c-265.077 0.046-479.947 214.943-479.947 480.026 0 265.112 214.915 480.026 480.026 480.026 0.028 0 0.056 0 0.084 0 265.084-0.030 479.969-214.934 479.969-480.026 0-265.112-214.915-480.026-480.026-480.026-0.019 0-0.038 0-0.056 0z" p-id="5794" fill="#ffffff"></path></svg>