<?xml version="1.0" standalone="no"?><!DOCTYPE svg PUBLIC "-//W3C//DTD SVG 1.1//EN" "http://www.w3.org/Graphics/SVG/1.1/DTD/svg11.dtd"><svg t="1683775585355" class="icon" viewBox="0 0 1024 1024" version="1.1" xmlns="http://www.w3.org/2000/svg" p-id="1157" xmlns:xlink="http://www.w3.org/1999/xlink" width="32" height="32"><path d="M1022.46528 478.976c0.32 9.472 0.512 20.416 0.512 32.896 0 281.984-228.992 510.592-511.488 510.592-118.08 0-238.848-35.968-322.048-88.96 159.232-27.2 143.36-14.912 409.088-120.768 242.944-96.704 423.936-313.664 423.936-333.76z" fill="#979695" p-id="1158"></path><path d="M511.48928 1.28a511.552 511.552 0 0 1 492.8 373.312c0.896 0.704-48.064 106.688-197.056 212.032-7.296 3.84-0.64-287.68-6.016-332.288 2.304-24.96-17.408-24.32-33.088-24.832a1671.872 1671.872 0 0 0-91.008 0c-25.664-0.192-29.44 5.76-33.088 20.672-1.536 4.8-0.896 421.44 1.024 428.16-17.472 7.808-44.032 19.52-63.04 26.88-4.288 0.768 0-296.704 0-330.88 0-25.92-5.76-37.248-24.832-37.248-27.968 0-74.432-1.472-103.424 0-25.28 1.216-32.64 20.352-33.088 37.184-0.704 26.816 3.52 374.016 0.32 381.312-19.648 4.992-39.36 9.664-59.136 14.08-0.448 1.344 1.024-278.592 0.896-291.968-0.256-26.24-14.336-31.168-37.248-28.928-14.72 1.408-63.488-1.152-78.592 0-29.952 0.64-36.992 9.344-37.184 28.928-0.256 22.4 0.256 319.936 1.024 319.872-43.264 6.464-82.048 11.008-113.6 13.824A507.712 507.712 0 0 1 0.00128 511.872C0.00128 229.888 228.99328 1.28 511.48928 1.28z" fill="#0C598B" p-id="1159"></path></svg>