<?xml version="1.0" standalone="no"?><!DOCTYPE svg PUBLIC "-//W3C//DTD SVG 1.1//EN" "http://www.w3.org/Graphics/SVG/1.1/DTD/svg11.dtd"><svg t="1684553611793" class="icon" viewBox="0 0 1024 1024" version="1.1" xmlns="http://www.w3.org/2000/svg" p-id="2795" xmlns:xlink="http://www.w3.org/1999/xlink" width="32" height="32"><path d="M1024 512c0-282.752-229.248-512-512-512S0 229.248 0 512s229.248 512 512 512 512-229.248 512-512z" fill="#8247E5" p-id="2796"></path><path d="M679.808 400.469333c-12.245333-6.997333-27.946667-6.997333-41.941333 0l-97.877334 57.941334-66.389333 36.864-96.128 57.941333c-12.245333 6.997333-27.989333 6.997333-41.941333 0l-75.178667-45.653333a42.837333 42.837333 0 0 1-20.949333-36.864V382.933333c0-14.08 6.954667-28.117333 20.949333-36.864l75.178667-43.946666c12.202667-6.997333 27.946667-6.997333 41.941333 0l75.136 45.653333c12.245333 7.04 20.992 21.077333 20.992 36.906667v57.941333l66.389333-38.656V344.32c0-14.037333-6.997333-28.074667-20.949333-36.864L379.221333 224.938667c-12.245333-7.04-27.989333-7.04-41.941333 0l-143.36 84.266666a38.656 38.656 0 0 0-20.906667 35.072v165.034667c0 14.08 6.954667 28.074667 20.906667 36.864l141.610667 82.517333c12.202667 7.04 27.946667 7.04 41.941333 0l96.128-56.192 66.389333-38.613333 96.128-56.149333c12.245333-7.04 27.989333-7.04 41.941334 0l75.178666 43.861333c12.245333 7.04 20.949333 21.077333 20.949334 36.864v87.765333c0 14.08-6.997333 28.117333-20.949334 36.864l-73.386666 43.946667c-12.245333 6.997333-27.989333 6.997333-41.984 0l-75.136-43.946667a42.837333 42.837333 0 0 1-20.992-36.864V590.08l-66.389334 38.613333v57.941334c0 14.037333 6.997333 28.074667 20.949334 36.864l141.568 82.517333c12.245333 6.997333 27.989333 6.997333 41.941333 0l141.568-82.517333c12.245333-7.04 20.992-21.077333 20.992-36.864v-166.784c0-14.08-6.997333-28.074667-20.992-36.864l-141.568-82.517334z" fill="#FFFFFF" p-id="2797"></path></svg>